<?xml version="1.0" encoding="UTF-8"?>
<!-- Generator: Adobe Illustrator 15.0.2, SVG Export Plug-In . SVG Version: 6.00 Build 0)  -->
<!DOCTYPE svg PUBLIC "-//W3C//DTD SVG 1.1//EN" "http://www.w3.org/Graphics/SVG/1.1/DTD/svg11.dtd">
<svg version="1.1" id="Layer_1" xmlns="http://www.w3.org/2000/svg" xmlns:xlink="http://www.w3.org/1999/xlink" x="0px" y="0px" width="512px" height="417.123px" viewBox="0 0 512 417.123" enable-background="new 0 0 512 417.123" xml:space="preserve">
<g>
	<g>
		<path d="M227.384,179.956c-15.806,15.793-15.806,41.405-0.013,57.204c15.822,15.825,41.434,15.812,57.227,0.007    c15.832-15.812,15.832-41.411,0-57.233C268.805,164.135,243.199,164.128,227.384,179.956z"/>
		<path d="M432.539,402.505c106.212-107.115,105.952-280.661-0.812-387.429c-0.149-0.152-0.331-0.243-0.487-0.393l0.039-0.039    l-11.273-11.29l-0.13,0.133c-6.169-4.91-15.072-4.624-20.858,0.935l-0.02-0.02l-0.175,0.175c-0.013,0.013-0.026,0.026-0.052,0.045    c-0.014,0.013-0.026,0.033-0.039,0.052L380.29,23.109c0,0.007-0.013,0.007-0.013,0.013s0,0.016-0.014,0.016l-1.324,1.328    l0.13,0.133c-4.533,5.773-4.507,13.877,0.064,19.624l-0.123,0.126l1.267,1.264v0.006l0,0l10.013,10.007l0.183-0.179    c0.148,0.153,0.246,0.332,0.402,0.484c84.23,84.237,84.497,221.126,0.805,305.708l-0.104-0.11l-10.007,10.001    c-0.007,0.006-0.013,0.006-0.02,0.013c-0.007,0.006-0.007,0.013-0.013,0.02l-1.247,1.253l0.123,0.123    c-4.902,6.17-4.617,15.066,0.941,20.858l-0.025,0.013l0.208,0.208c0.006,0.014,0.006,0.014,0.013,0.026    c0.007,0,0.013,0,0.02,0.013l9.279,9.279c0.013,0.007,0.02,0.014,0.02,0.02c0,0.007,0.013,0.007,0.02,0.014l9.149,9.149    c0.007,0.007,0.014,0.013,0.014,0.02c0.006,0.007,0.013,0.007,0.02,0.013l1.312,1.318l0.137-0.136    c5.772,4.539,13.89,4.52,19.63-0.059l0.13,0.13l10.416-10.43c0.014-0.013,0.02-0.02,0.033-0.025    c0.045-0.039,0.084-0.085,0.123-0.124l0.708-0.714L432.539,402.505z"/>
		<path d="M355.23,325.203c63.581-64.496,63.321-168.67-0.818-232.803c-0.149-0.155-0.331-0.246-0.487-0.402l0.052-0.046    L342.69,80.663l-0.13,0.133c-6.169-4.902-15.071-4.623-20.857,0.936l-0.02-0.02l-0.188,0.194c-0.013,0.014-0.026,0.02-0.039,0.026    s-0.02,0.02-0.026,0.032l-18.441,18.446c-0.014,0.006-0.026,0.013-0.026,0.02c-0.013,0.01-0.013,0.016-0.026,0.028l-1.312,1.315    l0.13,0.133c-4.532,5.767-4.513,13.878,0.065,19.625l-0.13,0.126l1.26,1.257c0,0.007,0,0.007,0.013,0.013    c0,0.007,0,0.007,0.013,0.014l10.001,10.007l0.182-0.179c0.143,0.152,0.24,0.331,0.39,0.483    c41.618,41.609,41.853,109.103,0.792,151.059l-0.078-0.084l-10.013,10.007c-0.007,0-0.007,0.006-0.014,0.006    c-0.006,0-0.006,0.007-0.006,0.014l-1.254,1.26l0.124,0.123c-4.903,6.169-4.617,15.065,0.941,20.845l-0.026,0.026l18.722,18.722    l0,0l0,0l1.331,1.338l0.137-0.137c5.772,4.533,13.877,4.514,19.624-0.059l0.137,0.137l10.448-10.455l0,0l0,0l0.831-0.831    L355.23,325.203z"/>
	</g>
	<g>
		<path d="M284.623,179.976c-15.818-15.828-41.43-15.806-57.223-0.006c-15.822,15.818-15.822,41.41,0,57.223    c15.799,15.807,41.404,15.819,57.223-0.013C300.416,221.387,300.416,195.775,284.623,179.976z"/>
		<path d="M210.175,295.604l0.127-0.123l-1.25-1.254c-0.007-0.006-0.013-0.013-0.02-0.025c-0.007-0.007-0.013-0.014-0.02-0.02    l-9.994-10.001l-0.182,0.182c-0.146-0.155-0.243-0.337-0.39-0.48c-41.615-41.612-41.846-109.108-0.792-151.068l0.084,0.088    l11.286-11.279l-0.133-0.13c4.906-6.166,4.62-15.069-0.938-20.849l0.026-0.026l-20.066-20.062l-0.133,0.134    c-5.772-4.536-13.874-4.517-19.624,0.058l-0.127-0.126l-1.27,1.272l0,0l0,0l-9.182,9.183l0,0l0,0l-0.831,0.831l0.019,0.02    c-63.584,64.496-63.324,168.67,0.818,232.809c0.146,0.149,0.325,0.247,0.478,0.396l-0.039,0.039l11.283,11.286l0.133-0.13    c6.159,4.902,15.056,4.617,20.849-0.936l0.02,0.02l0.191-0.194c0.013-0.014,0.026-0.02,0.032-0.026    c0.007-0.007,0.023-0.025,0.029-0.032l18.452-18.455c0.007-0.007,0.013-0.007,0.02-0.014c0.007-0.006,0.007-0.013,0.013-0.013    l1.325-1.325l-0.133-0.13C214.77,309.456,214.75,301.352,210.175,295.604z"/>
		<path d="M132.866,372.913l0.127-0.13l-1.263-1.26c0,0,0-0.007-0.007-0.007c0,0-0.007,0-0.007-0.006l-10.013-10.008l-0.182,0.176    c-0.146-0.149-0.244-0.324-0.394-0.48c-84.237-84.244-84.487-221.12-0.802-305.705l0.104,0.107l10.004-10    c0.007-0.007,0.013-0.007,0.02-0.014c0.007-0.006,0.007-0.016,0.013-0.022l1.25-1.25l-0.126-0.123    c4.906-6.166,4.627-15.069-0.938-20.855l0.026-0.026l-9.533-9.536l-0.007-0.007c-0.01-0.006-0.01-0.006-0.01-0.006l-10.51-10.513    l-0.134,0.14c-5.766-4.536-13.874-4.517-19.624,0.058l-0.133-0.133L79.452,14.599l0.02,0.02    C-26.75,121.743-26.497,295.293,80.276,402.058c0.153,0.155,0.331,0.246,0.484,0.396l-0.046,0.046l11.283,11.286l0.133-0.13    c6.166,4.902,15.069,4.617,20.855-0.941l0.02,0.02l0.217-0.222l0,0l0,0l18.476-18.48c0.013-0.014,0.025-0.014,0.032-0.026    c0.013-0.013,0.02-0.026,0.025-0.032l1.306-1.306l-0.133-0.13C137.461,386.771,137.441,378.666,132.866,372.913z"/>
	</g>
</g>
</svg>